<?xml version="1.0" encoding="UTF-8"?>
<svg id="Layer_2" data-name="Layer 2" xmlns="http://www.w3.org/2000/svg" xmlns:xlink="http://www.w3.org/1999/xlink" viewBox="0 0 610.08 610.08">
  <defs>
    <style>
      .cls-1 {
        fill: none;
      }

      .cls-2 {
        fill: #0f4a7d;
      }

      .cls-3 {
        clip-path: url(#clippath-1);
      }

      .cls-4 {
        clip-path: url(#clippath-3);
      }

      .cls-5 {
        clip-path: url(#clippath-2);
      }

      .cls-6 {
        fill: #fff;
      }

      .cls-7 {
        fill: #f0cd76;
      }

      .cls-8 {
        fill: #89272c;
      }

      .cls-9 {
        clip-path: url(#clippath);
      }
    </style>
    <clipPath id="clippath">
      <rect class="cls-1" x="291.92" y="21.53" width="206.48" height="152.35" transform="translate(-11.38 77.16) rotate(-10.99)"/>
    </clipPath>
    <clipPath id="clippath-1">
      <rect class="cls-1" x="299.41" y="-21.75" width="183.05" height="228.53" transform="translate(270.27 475.69) rotate(-85.83)"/>
    </clipPath>
    <clipPath id="clippath-2">
      <rect class="cls-1" x="299.41" y="-21.75" width="183.05" height="228.53" transform="translate(270.27 475.69) rotate(-85.83)"/>
    </clipPath>
    <clipPath id="clippath-3">
      <rect class="cls-1" x="299.41" y="-21.75" width="183.05" height="228.53" transform="translate(270.27 475.69) rotate(-85.83)"/>
    </clipPath>
  </defs>
  <g id="Layer_1-2" data-name="Layer 1">
    <g>
      <path class="cls-8" d="M102.94,470.41c-17.84.9-33.49,4.79-47.15,10.51,6.12,8.66,12.69,16.99,19.66,24.95,7.05-15.85,16.9-27.27,27.49-35.46Z"/>
      <path class="cls-8" d="M285.15,606.58l-16.74-4.06c-37.72-11.82-63.1-37.46-79.91-80.49-20,4.81-40.16,18.85-57.07,33.83,47.24,32.76,104.16,52.53,165.62,54.12v-1.77c-4.09-.41-8.06-.95-11.9-1.63Z"/>
      <path class="cls-8" d="M111.57,241.33c88.5,10.93,129.72,59.54,148.85,104.81l50.18-54.76c-9.72-16.65-14.54-35.44-14.02-54.89.64-22.8,8.94-44.54,23.58-62.33-5.44-7.77-8.42-16.91-8.42-26.31,0-26.45,22.75-47.97,50.73-47.97,10.17,0,19.82,2.81,28.07,8.06,9.72-6.65,21.78-10.32,34.36-10.32,24.24,0,44.93,13.28,52.48,32.27,28.62,1.99,51.2,22.68,51.2,47.82,0,16.94-10.41,32.33-26.79,40.88,1.04,5.05,1.7,10.17,1.96,15.35l27.76,25.29c5.06,4.64,7.43,11.45,6.31,18.21-1.11,6.76-5.53,12.45-11.8,15.21l-24.62,10.84c8.02,15.95,15.58,34.07,16.79,40.85,2.91,16.31-7.92,31.94-24.15,34.99,9.34,24.41,2.81,86.96-21.24,138.08-16.31,34.64-38.1,59.83-64.23,74.64,117.5-42.4,201.51-154.89,201.51-287.01C610.08,136.57,473.51,0,305.04,0,153.53,0,27.85,110.46,4.07,255.24c29.03-13.01,64.43-19.24,107.5-13.91Z"/>
      <path class="cls-2" d="M408.58,592.05c26.13-14.81,47.92-40,64.23-74.64,24.05-51.12,30.58-113.67,21.24-138.08,16.22-3.05,27.05-18.68,24.15-34.99-1.21-6.79-8.77-24.9-16.79-40.85l24.62-10.84c6.27-2.76,10.69-8.44,11.8-15.21,1.11-6.76-1.25-13.57-6.31-18.21l-27.76-25.29c-.26-5.18-.92-10.3-1.96-15.35,16.39-8.55,26.79-23.93,26.79-40.88,0-25.14-22.59-45.83-51.2-47.82-7.54-18.99-28.24-32.27-52.48-32.27-12.58,0-24.64,3.68-34.36,10.32-8.25-5.25-17.9-8.06-28.07-8.06-27.98,0-50.73,21.52-50.73,47.97,0,9.4,2.98,18.54,8.42,26.31-14.64,17.78-22.94,39.53-23.58,62.33-.52,19.45,4.3,38.24,14.02,54.89l-50.18,54.76c-19.13-45.28-60.35-93.89-148.85-104.81-43.07-5.33-78.47.9-107.5,13.91-2.66,16.21-4.07,32.84-4.07,49.8,0,26.3,3.33,51.83,9.59,76.18,4.59-1.24,9.16-2.22,13.65-2.9-4.27,2.73-8.29,5.63-12.09,8.66,9.48,34.09,24.73,65.77,44.64,93.94,13.66-5.72,29.31-9.61,47.15-10.51-10.59,8.19-20.44,19.6-27.49,35.46,16.52,18.87,35.32,35.67,55.98,50,16.91-14.98,37.07-29.02,57.07-33.83,16.81,43.03,42.19,68.67,79.91,80.49l16.74,4.06c3.83.69,7.8,1.22,11.9,1.63v1.77c2.66.07,5.32.1,8,.1,36.35,0,71.21-6.37,103.54-18.04ZM421.33,198.71c16.08,0,29.11,13.03,29.11,29.11s-13.03,29.11-29.11,29.11-29.11-13.03-29.11-29.11,13.03-29.11,29.11-29.11Z"/>
      <circle class="cls-6" cx="421.33" cy="227.82" r="29.11"/>
      <g class="cls-9">
        <g class="cls-3">
          <g class="cls-5">
            <g class="cls-4">
              <path class="cls-7" d="M441.39,70.84l29.03-57.6c3.24-6.42,12.77-4.85,13.8,2.28l17.31,122.1c.45,3.22-1.24,6.38-4.2,7.71-19.09,8.58-90.87,37.83-175.87,33.74-3.13-.14-5.83-2.34-6.71-5.32l-33.15-119.38c-1.96-6.84,5.94-12.18,11.53-7.81l53.83,42.18c3.92,3.06,9.68,1.39,11.38-3.27l21.29-58.71c1.99-5.41,9.12-6.53,12.66-1.99l36.68,47.31c3.42,4.21,10.02,3.56,12.42-1.24Z"/>
            </g>
          </g>
        </g>
      </g>
    </g>
  </g>
</svg>